<?xml version="1.0" standalone="no"?><!DOCTYPE svg PUBLIC "-//W3C//DTD SVG 1.1//EN" "http://www.w3.org/Graphics/SVG/1.1/DTD/svg11.dtd"><svg t="1502248060329" class="icon" style="" viewBox="0 0 1024 1024" version="1.1" xmlns="http://www.w3.org/2000/svg" p-id="1766" xmlns:xlink="http://www.w3.org/1999/xlink" width="11" height="14"><defs><style type="text/css"></style></defs><path d="M810.568003 448.019827 810.568003 362.713952c0-164.893514-85.684498-298.56698-298.569026-298.56698-214.355019 0-298.569026 133.673465-298.569026 298.56698l0 85.304851c-23.557532 0-42.652426 19.097964-42.652426 42.654472l0 426.526303c0 23.554462 19.095917 42.650379 42.652426 42.650379l597.137029 0c23.557532 0 42.652426-19.095917 42.652426-42.650379L853.219405 490.674299C853.221452 467.11779 834.125535 448.019827 810.568003 448.019827zM298.736848 362.713952c0-117.78152 63.019289-213.263152 213.263152-213.263152 147.422607 0 213.263152 95.482655 213.263152 213.263152l0 85.304851L298.736848 448.018803 298.736848 362.713952zM533.325701 743.900627l0 87.995123-42.652426 0 0-87.995123c-36.791951-9.469676-63.97915-42.86732-63.97915-82.617649 0-47.111994 38.192857-85.304851 85.304851-85.304851 47.111994 0 85.304851 38.192857 85.304851 85.304851C597.304851 701.033307 570.118676 734.430952 533.325701 743.900627z" p-id="1767"></path></svg>